<svg xmlns="http://www.w3.org/2000/svg" viewBox="0 0 401.9 393.36"><defs><style>.cls-1{fill:#040000;}</style></defs><g id="图层_2" data-name="图层 2"><polygon class="cls-1" points="132.61 151.48 132.61 157.44 132.1 157.16 127.63 154.72 127.63 170.19 96.41 153.15 96.41 117.15 126.74 133.71 127.63 134.19 127.63 148.76 132.1 151.2 132.47 151.4 132.61 151.48"/><polygon class="cls-1" points="167.76 170.75 167.76 176.71 167.22 176.42 162.74 173.97 162.74 189.36 132.1 172.63 132.1 160.58 135.61 162.5 135.61 149.69 134.04 148.84 133.89 148.76 132.1 147.78 132.1 136.63 161.81 152.85 162.74 153.36 162.74 168 167.22 170.46 167.61 170.67 167.76 170.75"/><polygon class="cls-1" points="203.58 186.48 203.58 192.44 203.43 192.52 202.51 193.02 198.51 195.21 198.51 208.88 167.22 191.8 167.22 179.83 170.76 181.76 170.76 168.96 169.18 168.11 169.03 168.03 167.22 167.04 167.22 155.8 198.51 172.88 198.51 189.25 202.51 187.06 203.58 186.48"/><polygon class="cls-1" points="238.95 166.94 238.95 172.91 238.8 172.98 238.13 173.35 233.78 175.73 233.66 175.79 233.66 191.88 202.51 208.88 202.51 196.44 204.87 195.15 205 195.08 206.58 194.23 206.58 181.43 202.51 183.65 202.51 172.88 233.66 155.88 233.66 169.84 233.78 169.77 238.13 167.39 238.95 166.94"/><polygon class="cls-1" points="274.22 147.49 274.22 153.45 274.07 153.53 273.39 153.9 269.05 156.28 268.91 156.35 268.91 172.64 267.68 173.31 238.13 189.44 238.13 176.77 240.24 175.62 240.37 175.55 241.95 174.7 241.95 161.89 238.13 163.97 238.13 153.44 239.52 152.68 239.53 152.68 268.91 136.64 268.91 150.4 269.05 150.32 273.39 147.94 274.22 147.49"/><polygon class="cls-1" points="304.61 117.15 304.61 153.15 273.39 170.19 273.39 157.33 275.51 156.17 275.64 156.1 277.22 155.25 277.22 142.44 273.39 144.53 273.39 134.19 274.59 133.53 284.66 128.03 287.79 126.33 287.3 126.06 287.16 125.98 283.21 123.83 282.44 123.41 287.99 120.38 288.75 120.79 292.85 123.03 293.34 123.3 296.48 121.59 304.61 117.15"/><polygon class="cls-1" points="265.4 133.58 238.13 148.5 235.03 150.2 233.66 149.44 225.98 145.21 225.97 145.21 222.86 143.49 222.11 143.9 221.98 143.97 218.2 146.03 217.26 146.55 217.12 146.63 211.56 143.6 212.68 142.99 216.42 140.94 217.33 140.44 214.22 138.73 214.21 138.73 205.46 133.9 233.66 118.35 235.72 117.21 238.13 118.54 244.43 122.01 239.96 124.45 244.79 127.09 250.34 130.12 251.79 130.91 253.23 130.11 253.37 130.03 256.18 128.49 265.4 133.58"/><polygon class="cls-1" points="302.1 113.49 291.89 119.08 289.43 117.74 287.99 116.96 286.56 117.74 281 120.77 276.17 123.4 280.08 125.54 273.39 129.2 270.05 131.03 268.91 130.4 260.84 125.95 257.73 124.23 256.78 124.75 256.64 124.83 253.07 126.78 251.92 127.41 251.78 127.48 246.22 124.45 247.54 123.73 251.08 121.8 252.2 121.19 249.09 119.47 240.36 114.66 268.91 98.91 272.17 97.11 273.39 97.78 302.1 113.49"/><polygon class="cls-1" points="232.5 75.39 222.4 80.96 219.84 79.56 218.4 78.77 216.97 79.56 211.41 82.59 206.58 85.22 210.65 87.44 200.82 92.86 168.86 75.24 200.54 57.9 232.5 75.39"/><polygon class="cls-1" points="230.38 152.75 200.54 169.08 170.99 152.9 180.89 147.44 184.01 145.72 183.25 145.31 183.11 145.24 179.35 143.18 178.39 142.66 183.95 139.63 184.88 140.14 188.81 142.28 189.53 142.67 192.64 140.96 200.82 136.45 209.56 141.27 205.3 143.6 210.12 146.23 215.68 149.26 217.13 150.05 218.57 149.25 218.71 149.18 221.32 147.75 230.38 152.75"/><polygon class="cls-1" points="267.52 94.56 238.13 110.77 235.72 112.1 233.66 110.96 226.64 107.09 230.63 104.91 225.8 102.28 220.24 99.25 218.8 98.47 217.37 99.25 214.88 100.61 205.46 95.41 215.31 89.98 218.43 88.27 217.7 87.87 217.57 87.8 213.77 85.72 212.85 85.22 218.4 82.19 219.29 82.67 223.26 84.84 223.95 85.22 227.07 83.5 233.66 79.87 237.15 77.94 238.13 78.48 267.52 94.56"/><polygon class="cls-1" points="188.98 104.5 189.83 104.96 184.27 107.98 184.13 107.91 183.46 107.54 179.41 105.33 179.27 105.26 178.8 105 175.69 106.72 167.22 111.39 165.93 112.1 162.74 110.34 155.7 106.46 159.77 104.23 154.95 101.6 149.39 98.57 147.95 97.79 146.52 98.57 143.94 99.98 133.84 94.41 164.21 77.78 164.22 77.78 179.94 86.45 196.19 95.41 187.44 100.24 184.33 101.95 184.97 102.3 188.98 104.5"/><polygon class="cls-1" points="196.19 133.9 187.99 138.42 185.38 137 183.95 136.21 182.51 137 176.95 140.03 172.13 142.66 176.24 144.9 167.22 149.87 166.33 150.36 162.74 148.39 135.96 133.73 145.83 128.29 148.94 126.58 148.16 126.15 148.03 126.08 144.28 124.03 143.31 123.5 148.86 120.47 149.8 120.98 153.72 123.12 154.47 123.53 157.58 121.81 162.74 118.97 165.93 117.21 167.22 117.92 196.19 133.9"/><polygon class="cls-1" points="231.08 114.66 200.82 131.34 170.56 114.65 180.34 109.26 182.69 110.54 182.82 110.61 184.26 111.41 185.71 110.62 191.26 107.59 196.09 104.96 192.1 102.78 200.82 97.97 210.21 103.15 213.34 104.87 213.95 104.54 217.99 102.32 218.8 101.88 224.36 104.91 223.52 105.37 219.64 107.49 219.5 107.57 218.86 107.92 221.97 109.64 231.08 114.66"/><polygon class="cls-1" points="161.29 114.65 152.92 119.27 150.3 117.84 148.86 117.05 147.43 117.83 141.87 120.86 137.04 123.5 141.17 125.75 132.1 130.75 131.31 131.19 127.63 129.17 98.98 113.49 127.63 97.81 129.19 96.95 132.1 98.56 139.28 102.52 142.4 104.24 143.09 103.86 147.06 101.7 147.95 101.21 153.51 104.24 152.59 104.74 148.79 106.81 148.65 106.89 147.93 107.28 151.04 109 161.29 114.65"/><path class="cls-1" d="M84.53,235.22h10v11.64h13.15V235.22H117.8v11.64h12v9.22h-12v11h13.79v9.38H70.93V267.1h13.6v-11H73v-9.22H84.53Zm2.71,43.06,10.22,3.93a74.56,74.56,0,0,1-5.61,5.66q-3.09,2.82-6.4,5.32A70.11,70.11,0,0,1,79,297.56a30,30,0,0,0-2.45-2.32c-1-.84-1.93-1.66-2.9-2.45s-1.83-1.45-2.58-2A62.71,62.71,0,0,0,83,282.65,36.68,36.68,0,0,0,87.24,278.28Zm7.32-11.18h13.15v-11H94.56Zm10.57,15.6,8.83-4.77q2.72,2,6,4.49t6.48,5.05a63,63,0,0,1,5.18,4.61L122,297.56a49.24,49.24,0,0,0-4.64-4.61c-2-1.74-4-3.52-6.17-5.32S107,284.18,105.13,282.7Z"/><path class="cls-1" d="M141.31,241.38h53.18v10H173.06v32.14h25.39v9.7H137.54v-9.7H162V251.4H141.31Z"/><path class="cls-1" d="M213.65,297.81a16.85,16.85,0,0,0-1.16-3c-.56-1.15-1.14-2.27-1.76-3.37a19.26,19.26,0,0,0-1.72-2.64,9.87,9.87,0,0,0,2.58-2.56,6.57,6.57,0,0,0,1.25-4V264.49h-9.09V255h18.92v24l6-4.22a24.79,24.79,0,0,0,.79,3.06c.35,1.12.73,2.21,1.12,3.27s.75,1.92,1,2.56q-5.22,3.84-8.49,6.29c-2.18,1.63-3.9,2.94-5.14,3.93s-2.19,1.78-2.84,2.37A12.59,12.59,0,0,0,213.65,297.81Zm-5.35-56.37,6.06-6.22c1.24.93,2.6,2,4.08,3.11s2.88,2.3,4.22,3.43a26.85,26.85,0,0,1,3.21,3.16l-6.48,6.93a34.32,34.32,0,0,0-3-3.28c-1.25-1.23-2.6-2.47-4-3.73S209.57,242.45,208.3,241.44ZM225.51,255h15.41V235.16h10.34V255h14.41v10H251.26v32.49H240.92V265.07H225.51Z"/><path class="cls-1" d="M269.49,252.59l7.86-.87c0-.64-.06-1.3-.06-2q-.48-7.48-.55-14.86h9.83q-.19,7.66.36,15.18v.68l18.85-2.07.87,9.06-18.89,2c.18,1.59.4,3.11.68,4.55.3,2.21.66,4.28,1.06,6.22a60.12,60.12,0,0,0,5.93-10.83l9,2.77A77,77,0,0,1,297,275.83q-2.13,3-4.35,5.68a22.63,22.63,0,0,0,1.38,2.83q1.65,3,3.42,3c.71,0,1.26-.85,1.66-2.55a50.53,50.53,0,0,0,.85-8.35,19.58,19.58,0,0,0,3.76,3.11,21.29,21.29,0,0,0,4.11,2.18,38.86,38.86,0,0,1-2.06,9.47,8.59,8.59,0,0,1-3.5,4.48,11.12,11.12,0,0,1-5.53,1.23,9.91,9.91,0,0,1-6.67-2.51,18.75,18.75,0,0,1-4.41-5.61,69.75,69.75,0,0,1-9.45,7.25c-.45-.65-1.08-1.44-1.88-2.39s-1.64-1.89-2.5-2.83a28.85,28.85,0,0,0-2.29-2.29,56.58,56.58,0,0,0,10.64-7.38c.55-.54,1.12-1.08,1.7-1.61-.21-.82-.44-1.65-.67-2.48a102.18,102.18,0,0,1-2.49-12.9c-.19-1.09-.35-2.19-.48-3.28l-7.83.83ZM287.18,240l6.32-5.15c1.12.83,2.27,1.77,3.45,2.8s2.3,2.07,3.37,3.13a21.16,21.16,0,0,1,2.5,2.9l-6.8,5.77a20.26,20.26,0,0,0-2.26-3q-1.49-1.69-3.24-3.37T287.18,240Zm20.92,1.77h9.19v36.59H308.1Zm12.54-6.28H330v51.31a16.6,16.6,0,0,1-.79,5.75,6,6,0,0,1-2.9,3.21,14.93,14.93,0,0,1-5.26,1.5,63.06,63.06,0,0,1-7.36.37,27.69,27.69,0,0,0-1.14-4.77,38.52,38.52,0,0,0-1.83-4.74c1.68.05,3.34.08,5,.1l3.34,0a1.86,1.86,0,0,0,1.26-.31,1.57,1.57,0,0,0,.32-1.14Z"/><path class="cls-1" d="M87,327.68h5a10.22,10.22,0,0,1-1.48,4.74A8.94,8.94,0,0,1,87,335.65a12.12,12.12,0,0,1-5.56,1.17,10.87,10.87,0,0,1-4.51-.89,9.58,9.58,0,0,1-3.43-2.54,11.42,11.42,0,0,1-2.17-4,17.16,17.16,0,0,1-.75-5.25v-2a16.57,16.57,0,0,1,.77-5.26,11.43,11.43,0,0,1,2.2-4A9.75,9.75,0,0,1,77,310.29a11,11,0,0,1,4.53-.9,11.61,11.61,0,0,1,5.52,1.2,8.75,8.75,0,0,1,3.5,3.29,11.29,11.29,0,0,1,1.5,4.8H87a8.15,8.15,0,0,0-.72-2.86A4,4,0,0,0,84.54,314a6.46,6.46,0,0,0-3-.61,5.68,5.68,0,0,0-2.57.55,4.73,4.73,0,0,0-1.84,1.64,7.89,7.89,0,0,0-1.1,2.71,16.76,16.76,0,0,0-.37,3.75v2.07a18.32,18.32,0,0,0,.33,3.65,8.22,8.22,0,0,0,1,2.73,4.7,4.7,0,0,0,1.79,1.7,5.54,5.54,0,0,0,2.62.59,6.73,6.73,0,0,0,3-.59,4.05,4.05,0,0,0,1.78-1.72A7.64,7.64,0,0,0,87,327.68Z"/><path class="cls-1" d="M95,326.74v-.38a12.55,12.55,0,0,1,.62-4,9.24,9.24,0,0,1,1.82-3.2,8.17,8.17,0,0,1,2.91-2.12,9.55,9.55,0,0,1,3.92-.76,9.76,9.76,0,0,1,4,.76,8.21,8.21,0,0,1,2.92,2.12,9.24,9.24,0,0,1,1.82,3.2,12.55,12.55,0,0,1,.62,4v.38a12.62,12.62,0,0,1-.62,4,9.43,9.43,0,0,1-1.82,3.2,8.05,8.05,0,0,1-2.91,2.12,10.72,10.72,0,0,1-7.88,0A8,8,0,0,1,97.48,334a9.43,9.43,0,0,1-1.82-3.2A12.62,12.62,0,0,1,95,326.74Zm4.84-.38v.38a11.15,11.15,0,0,0,.25,2.44,6.64,6.64,0,0,0,.79,2,3.85,3.85,0,0,0,1.38,1.34,4,4,0,0,0,2,.49,3.83,3.83,0,0,0,3.4-1.83,6.39,6.39,0,0,0,.79-2,10.56,10.56,0,0,0,.26-2.44v-.38a10.3,10.3,0,0,0-.26-2.41,6.48,6.48,0,0,0-.79-2,4,4,0,0,0-1.4-1.37,4,4,0,0,0-5.43,1.37,6.74,6.74,0,0,0-.79,2A10.87,10.87,0,0,0,99.88,326.36Z"/><path class="cls-1" d="M122.33,320.7v15.76H117.5V316.63h4.56Zm-.71,5.13h-1.48a13.63,13.63,0,0,1,.5-3.82,9.13,9.13,0,0,1,1.49-3,6.92,6.92,0,0,1,2.45-2,7.68,7.68,0,0,1,3.38-.71,7.47,7.47,0,0,1,2.46.39,5.15,5.15,0,0,1,1.93,1.23,5.71,5.71,0,0,1,1.26,2.16,10.3,10.3,0,0,1,.44,3.18v13.24h-4.84V323.72a4.82,4.82,0,0,0-.4-2.18,2.2,2.2,0,0,0-1.12-1.11,4.46,4.46,0,0,0-1.76-.32,4,4,0,0,0-2,.45,3.77,3.77,0,0,0-1.34,1.23,5.53,5.53,0,0,0-.77,1.82A9.15,9.15,0,0,0,121.62,325.83Zm12.06-.9-2,.36a12.38,12.38,0,0,1,.52-3.5,8.49,8.49,0,0,1,1.45-2.88,6.69,6.69,0,0,1,2.4-1.94,7.35,7.35,0,0,1,3.33-.71,8.14,8.14,0,0,1,2.65.41,5.07,5.07,0,0,1,2,1.3,5.83,5.83,0,0,1,1.29,2.3,11.46,11.46,0,0,1,.45,3.45v12.74h-4.87V323.7a4.92,4.92,0,0,0-.4-2.22,2.16,2.16,0,0,0-1.12-1.07,4.57,4.57,0,0,0-1.73-.3,3.86,3.86,0,0,0-1.75.37,3.56,3.56,0,0,0-1.24,1,4.38,4.38,0,0,0-.75,1.53A6.68,6.68,0,0,0,133.68,324.93Z"/><path class="cls-1" d="M155.31,320.7v15.76h-4.83V316.63H155Zm-.71,5.13h-1.49a13.63,13.63,0,0,1,.51-3.82,8.94,8.94,0,0,1,1.49-3,6.92,6.92,0,0,1,2.45-2,7.68,7.68,0,0,1,3.38-.71,7.47,7.47,0,0,1,2.46.39,5.15,5.15,0,0,1,1.93,1.23,5.71,5.71,0,0,1,1.26,2.16,10.3,10.3,0,0,1,.44,3.18v13.24h-4.84V323.72a4.82,4.82,0,0,0-.4-2.18,2.24,2.24,0,0,0-1.12-1.11,4.46,4.46,0,0,0-1.76-.32,4,4,0,0,0-2,.45,3.74,3.74,0,0,0-1.33,1.23,5.53,5.53,0,0,0-.77,1.82A9.15,9.15,0,0,0,154.6,325.83Zm12.06-.9-2,.36a12.38,12.38,0,0,1,.51-3.5,8.69,8.69,0,0,1,1.46-2.88A6.69,6.69,0,0,1,169,317a7.35,7.35,0,0,1,3.33-.71,8.14,8.14,0,0,1,2.65.41,5.14,5.14,0,0,1,2,1.3,6,6,0,0,1,1.29,2.3,11.46,11.46,0,0,1,.45,3.45v12.74H173.9V323.7a4.92,4.92,0,0,0-.4-2.22,2.16,2.16,0,0,0-1.12-1.07,4.57,4.57,0,0,0-1.73-.3,3.86,3.86,0,0,0-1.75.37,3.56,3.56,0,0,0-1.24,1,4.38,4.38,0,0,0-.75,1.53A6.68,6.68,0,0,0,166.66,324.93Z"/><path class="cls-1" d="M182.61,326.74v-.38a12.28,12.28,0,0,1,.63-4,9.22,9.22,0,0,1,1.81-3.2A8.26,8.26,0,0,1,188,317a10.62,10.62,0,0,1,7.89,0,8.25,8.25,0,0,1,2.93,2.12,9.22,9.22,0,0,1,1.81,3.2,12.28,12.28,0,0,1,.62,4v.38a12.35,12.35,0,0,1-.62,4,9.41,9.41,0,0,1-1.81,3.2,8.18,8.18,0,0,1-2.92,2.12,9.78,9.78,0,0,1-3.94.75,9.89,9.89,0,0,1-3.94-.75,8,8,0,0,1-2.93-2.12,9.41,9.41,0,0,1-1.81-3.2A12.35,12.35,0,0,1,182.61,326.74Zm4.84-.38v.38a11.13,11.13,0,0,0,.26,2.44,6.39,6.39,0,0,0,.79,2,3.77,3.77,0,0,0,1.38,1.34,4,4,0,0,0,2,.49,3.8,3.8,0,0,0,3.4-1.83,6.4,6.4,0,0,0,.8-2,11.13,11.13,0,0,0,.26-2.44v-.38a10.86,10.86,0,0,0-.26-2.41,6.5,6.5,0,0,0-.8-2,4,4,0,0,0-1.39-1.37,3.91,3.91,0,0,0-2-.51,3.81,3.81,0,0,0-2,.51A3.91,3.91,0,0,0,188.5,322a6.48,6.48,0,0,0-.79,2A10.86,10.86,0,0,0,187.45,326.36Z"/><path class="cls-1" d="M209.84,320.86v15.6H205V316.63h4.54Zm-.77,5h-1.43a13,13,0,0,1,.58-3.93,9.18,9.18,0,0,1,1.61-3,7.09,7.09,0,0,1,2.46-1.94,7.38,7.38,0,0,1,3.19-.68,7.82,7.82,0,0,1,2.59.4,4.94,4.94,0,0,1,2,1.29,5.74,5.74,0,0,1,1.29,2.3,11.65,11.65,0,0,1,.45,3.49v12.72h-4.88V323.7a4.87,4.87,0,0,0-.39-2.14,2.3,2.3,0,0,0-1.14-1.12,4.49,4.49,0,0,0-1.82-.33,3.92,3.92,0,0,0-3.35,1.68,6.1,6.1,0,0,0-.85,1.82A7.85,7.85,0,0,0,209.07,325.83Z"/><path class="cls-1" d="M230,309.77l4.37,21.5v5.19h-3.32L225,309.77Zm3.36,21.57,5.31-21.57h2.88l.18,4.55-5.68,22.14h-3Zm9.57-21.57,5.31,21.65.31,5h-3l-5.66-22.16.22-4.53Zm4.32,21.41,4.29-21.41h5l-6.05,26.69H247.2Z"/><path class="cls-1" d="M258.33,326.74v-.38a12.55,12.55,0,0,1,.62-4,9.24,9.24,0,0,1,1.82-3.2,8.17,8.17,0,0,1,2.91-2.12,9.59,9.59,0,0,1,3.92-.76,9.73,9.73,0,0,1,4,.76,8.21,8.21,0,0,1,2.92,2.12,9.24,9.24,0,0,1,1.82,3.2,12.55,12.55,0,0,1,.62,4v.38a12.62,12.62,0,0,1-.62,4,9.43,9.43,0,0,1-1.82,3.2,8.05,8.05,0,0,1-2.91,2.12,10.72,10.72,0,0,1-7.88,0,8,8,0,0,1-2.93-2.12,9.43,9.43,0,0,1-1.82-3.2A12.62,12.62,0,0,1,258.33,326.74Zm4.84-.38v.38a11.15,11.15,0,0,0,.25,2.44,6.64,6.64,0,0,0,.79,2,3.88,3.88,0,0,0,1.39,1.34,4,4,0,0,0,2,.49,3.83,3.83,0,0,0,3.4-1.83,6.65,6.65,0,0,0,.8-2,11.15,11.15,0,0,0,.25-2.44v-.38a10.87,10.87,0,0,0-.25-2.41,6.75,6.75,0,0,0-.8-2,4,4,0,0,0-1.39-1.37,3.92,3.92,0,0,0-2-.51,3.8,3.8,0,0,0-2,.51,3.93,3.93,0,0,0-1.38,1.37,6.74,6.74,0,0,0-.79,2A10.87,10.87,0,0,0,263.17,326.36Z"/><path class="cls-1" d="M285.64,320.68v15.78h-4.83V316.63h4.58Zm6-4.18L291.6,321a7.32,7.32,0,0,0-.91-.11c-.33,0-.65,0-.94,0a5.81,5.81,0,0,0-2,.3,3.62,3.62,0,0,0-1.4.87,3.57,3.57,0,0,0-.85,1.39,5.75,5.75,0,0,0-.33,1.84l-1-.13a14.83,14.83,0,0,1,.39-3.5,9.71,9.71,0,0,1,1.11-2.82,5.38,5.38,0,0,1,1.85-1.88,4.78,4.78,0,0,1,2.55-.67,6.82,6.82,0,0,1,.87.06A3.2,3.2,0,0,1,291.67,316.5Z"/><path class="cls-1" d="M299.53,308.29v28.17h-4.84V308.29ZM312,316.63l-8.63,9.69-4.67,4.75-1.54-3.76,3.61-4.54,5.39-6.14ZM307,336.46l-6.14-9.24,3.23-3.13,8.52,12.37Z"/><path class="cls-1" d="M325.78,331a2,2,0,0,0-.33-1.12,2.82,2.82,0,0,0-1.24-.9,12.79,12.79,0,0,0-2.64-.78,19.54,19.54,0,0,1-2.85-.83,9,9,0,0,1-2.23-1.2,5,5,0,0,1-1.46-1.67,4.55,4.55,0,0,1-.52-2.22A5.29,5.29,0,0,1,315,320a5.77,5.77,0,0,1,1.54-1.93,7.58,7.58,0,0,1,2.46-1.31,10,10,0,0,1,3.26-.49,10.52,10.52,0,0,1,4.35.82,6.51,6.51,0,0,1,2.8,2.27,5.71,5.71,0,0,1,1,3.23h-4.84a2.89,2.89,0,0,0-.36-1.43,2.65,2.65,0,0,0-1.09-1,3.81,3.81,0,0,0-1.85-.4,3.93,3.93,0,0,0-1.7.33,2.53,2.53,0,0,0-1,.86,2.15,2.15,0,0,0-.35,1.18,1.8,1.8,0,0,0,.19.85,2,2,0,0,0,.63.69,5.1,5.1,0,0,0,1.21.56,15.26,15.26,0,0,0,1.87.5,19,19,0,0,1,3.88,1.16,6.59,6.59,0,0,1,2.59,1.92,4.74,4.74,0,0,1,.94,3,5.13,5.13,0,0,1-.57,2.41,5.6,5.6,0,0,1-1.65,1.9,8.16,8.16,0,0,1-2.58,1.25,11.89,11.89,0,0,1-3.39.45,9.86,9.86,0,0,1-4.62-1,7.24,7.24,0,0,1-2.86-2.49,5.73,5.73,0,0,1-1-3.14h4.63a3.11,3.11,0,0,0,.63,1.85,3.27,3.27,0,0,0,1.44,1,5.59,5.59,0,0,0,1.84.3,5,5,0,0,0,1.85-.3,2.55,2.55,0,0,0,1.13-.83A2,2,0,0,0,325.78,331Z"/></g></svg>